<?xml version="1.0" encoding="UTF-8" standalone="no"?>
<svg
   version="1.1"
   viewBox="0 22.5 750.81524 779.34783"
   width="750"
   height="750"
   id="svg1"
   sodipodi:docname="AI改图-logo-QPod-921x956.svg"
   inkscape:version="1.3.2 (091e20e, 2023-11-25, custom)"
   xmlns:inkscape="http://www.inkscape.org/namespaces/inkscape"
   xmlns:sodipodi="http://sodipodi.sourceforge.net/DTD/sodipodi-0.dtd"
   xmlns:xlink="http://www.w3.org/1999/xlink"
   xmlns="http://www.w3.org/2000/svg"
   xmlns:svg="http://www.w3.org/2000/svg">
  <defs
     id="defs1">
    <linearGradient
       id="linearGradient1"
       inkscape:collect="always">
      <stop
         style="stop-color:#1000cd;stop-opacity:1;"
         offset="0"
         id="stop1" />
      <stop
         style="stop-color:#4e7cff;stop-opacity:0.70078743;"
         offset="1"
         id="stop2" />
    </linearGradient>
    <linearGradient
       inkscape:collect="always"
       xlink:href="#linearGradient1"
       id="linearGradient2"
       x1="68.761894"
       y1="482.96249"
       x2="846.0675"
       y2="482.96249"
       gradientUnits="userSpaceOnUse"
       gradientTransform="matrix(0.93578456,0,0,0.98239569,-55.660929,-63.315669)" />
  </defs>
  <sodipodi:namedview
     id="namedview1"
     pagecolor="#ffffff"
     bordercolor="#000000"
     borderopacity="0.25"
     inkscape:showpageshadow="2"
     inkscape:pageopacity="0.0"
     inkscape:pagecheckerboard="0"
     inkscape:deskcolor="#d1d1d1"
     inkscape:zoom="0.79565217"
     inkscape:cx="459.37158"
     inkscape:cy="460"
     inkscape:window-width="1560"
     inkscape:window-height="970"
     inkscape:window-x="-6"
     inkscape:window-y="-6"
     inkscape:window-maximized="1"
     inkscape:current-layer="svg1">
    <inkscape:page
       x="0"
       y="0"
       width="750.81525"
       height="779.34784"
       id="page2"
       margin="0 0 65.300545"
       bleed="0" />
  </sodipodi:namedview>
  <path
     fill="#7fd858"
     d="m 641.89983,231.57704 0.01,1.21339 v 78.55559 l 0.01,1.49048 0.01,105.77584 a 0.57487171,0.58293941 17.044435 0 0 0.29707,0.50637 l 22.35778,12.36328 q 1.40876,0.77391 1.07332,0.90767 l 39.2339,22.63417 q 0.34499,0.0382 1.29375,0.74524 l 25.87482,14.95251 3.795,2.31215 0.11498,37.96884 v 1.15608 l 0.01,39.01027 q 0.17247,0.25797 0.0384,0.8599 l -0.0288,15.6022 a 0.45991689,0.44913097 12.994405 0 1 -0.68043,0.39172 l -28.86479,-16.26145 -1.70586,-1.3185 -37.94973,-21.83161 q -0.74749,-0.69746 -1.72497,-0.93632 l -27.68606,-15.86972 -2.17541,-1.3376 -8.66326,-5.01602 -1.35124,-0.78345 -17.70988,-10.1849 q -2.76,-2.27393 -6.27704,-3.60199 l -14.61465,-8.38868 q -0.59416,-0.62104 -1.55248,-0.80256 l -17.2212,-9.75497 q -1.57165,-1.48091 -3.00914,-1.99685 L 325.90113,332.46106 q -0.42165,-0.24841 -0.8529,0 l -67.44704,38.84786 a 1.3189004,1.3125046 66.56189 0 0 -0.65168,1.11785 l -0.0191,18.77424 0.0191,1.44269 -0.0191,38.2937 0.0191,1.62424 0.0191,17.43662 q 0,0.48727 0.42167,0.72613 l 37.41308,21.16282 q 0.46001,0.76434 1.35124,1.1274 l 7.63785,4.48099 q 1.57168,1.30894 3.88125,2.14971 9.11368,6.16254 18.00693,10.14668 l 20.51783,-11.79957 55.69798,-32.29359 a 1.9129555,1.9241299 60.547954 0 1 1.91665,-0.01 l 46.21048,26.2266 q 0.50793,0.6688 1.35127,1.11785 l 12.02699,7.03198 7.12993,4.4141 q 0.21084,0.12421 0.46961,0.12421 0.12457,0 0.25875,0 0.0575,-0.01 0.10541,0.019 l 5.14623,2.6561 0.46956,10.29 a 1.118055,1.1306237 77.892232 0 1 -0.57499,1.04142 l -10.47452,5.93324 q -1.12125,0.29618 -2.02205,1.10829 l -8.13621,4.71028 q -0.87209,0.3535 -1.66749,1.28984 l -68.29038,39.19181 q -0.46956,-0.0383 -0.37372,0.8121 0.0384,0.33441 -0.69002,-0.10509 l -58.37168,33.2968 a 1.9454037,1.9395264 0 0 1 -1.93583,0 l -58.07459,-33.39235 -1.4375,-0.77388 -68.06034,-39.20137 -1.90708,-1.22295 -20.27821,-11.61806 a 1.2554084,1.2516155 0 0 1 -0.62293,-1.07964 l -0.0481,-25.52913 q -0.24915,-0.086 0,-0.48727 V 325.01819 a 1.9206604,1.9355759 80.704137 0 1 0.97749,-1.67201 q 3.78539,-2.1306 7.88702,-4.55739 c 1.20749,-0.70702 1.77291,-1.45228 3.20084,-2.00642 q 2.36707,-0.89811 4.63828,-2.47456 2.00293,-1.39494 4.33166,-2.67521 13.07158,-7.21351 26.21022,-14.93341 2.49168,-1.46181 5.00249,-2.8854 17.24986,-9.78361 36.02348,-20.83796 l 3.41165,-1.84399 35.5539,-20.31247 4.96416,-2.90451 18.09322,-10.32821 a 2.0372231,2.0486511 61.572407 0 1 2.02206,0 l 17.33613,9.77406 1.86873,0.95543 38.13182,21.98447 q 0.89126,0.68792 1.95501,0.86944 0.7379,0.67837 1.83997,1.02232 l 0.90081,0.68791 169.91136,98.00818 a 0.38324084,0.39181885 17.183382 0 0 0.58458,-0.33439 l 0.01,-57.96605 -0.0191,-1.17518 -0.0191,-34.07068 q 0,-0.56372 -0.49834,-0.85034 l -51.09837,-29.29354 q -1.38957,-1.19428 -2.71207,-1.57646 l -22.70275,-13.02254 q -1.36082,-1.43314 -3.44999,-2.02551 l -136.95445,-78.43138 -0.84334,-0.79301 -14.6145,-8.43646 a 1.0349927,1.0318662 0 0 0 -1.03499,0 l -20.18235,11.79957 q -0.19169,0.0287 -0.45041,0.22931 l -133.21705,76.48236 q -0.66121,0.0478 -0.86251,0.80258 l -63.80538,36.34461 -6.468735,3.92682 -7.446142,4.08924 q 0.048,0.17199 -0.13416,0.20065 -0.17254,0.0287 -0.17254,0.20064 l -0.0575,35.90513 -0.0288,38.03572 0.0191,1.92997 -0.01,38.26505 -0.0288,41.54217 0.0288,38.37013 q -0.13415,0.95543 0,1.44271 l 0.01,38.32236 0.0672,34.30954 q 0,0.3153 0.26831,0.47772 0.12465,0.0764 0.25879,0.0478 l 10.790747,6.00009 q 2.27124,1.20385 1.04462,0.71658 l 220.38651,126.76667 a 1.1192333,1.1294335 55.140503 0 0 1.14039,0 L 566.87234,540.75469 a 2.2616512,2.2548188 0 0 1 2.26166,0 l 166.10677,95.55272 a 1.4277045,1.4142392 10.406247 0 1 0.71874,1.23251 l -0.0191,33.20124 0.0288,38.05485 0.0191,1.90131 0.0288,5.28353 -0.15332,15.84106 a 0.25874824,0.25796655 0 0 1 -0.39291,0.21975 l -28.4144,-16.43342 -2.09874,-1.03186 -6.36327,-3.47778 q -0.58461,-0.7739 -1.43748,-1.17518 l -30.68564,-17.65637 -1.35129,-0.72614 -96.63765,-55.673 q -0.575,-0.32485 -1.14042,0 l -59.75165,34.46242 q -1.08295,0.99365 -3.20082,1.78666 l -118.64086,68.15097 q -0.9008,0.28664 -1.58123,0.91721 l -15.82198,9.15304 -2.19457,1.27072 -40.29762,23.11189 q -0.42168,0.23887 -0.84334,0 l -40.66183,-23.31253 q -1.36086,-1.14651 -2.49167,-1.52869 l -15.88898,-9.10526 q -0.25875,-0.70702 -1.90707,-1.12741 l -118.89006,-68.27514 -2.12745,-1.15608 q -18.96531,-11.21677 -36.69433,-21.37301 -14.250377,-8.14982 -28.711487,-16.22322 -1.37995,-0.7739 -2.48212,-1.48092 -4.08239,-2.59879 -8.56736,-4.92048 c -1.65795,-0.85989 -2.97087,-1.85353 -4.52337,-2.74208 q -26.21021,-15.01939 -52.3821087,-30.0961 -0.54625,-0.3153 -0.99667,-1.40448 l 0.36416,-0.79302 v -39.21092 q -0.15333,-0.23884 -0.0192,-0.86943 l 0.0382,-26.69476 -0.01,-16.73917 v -5.23576 l 0.0192,-33.92739 -0.0288,-36.22996 q 0.0958,-0.74524 -0.0192,-0.9841 l 0.01,-78.55559 v -1.52869 l 0.0671,-35.08345 -0.0575,-7.18485 0.0192,-36.44016 q -0.13416,-0.24841 -0.18208,-0.81212 l 0.18208,-41.87657 a 1.2841576,1.2802785 0 0 1 0.65167,-1.09874 l 8.7207787,-4.93003 8.90285,-5.11155 L 324.46357,47.723317 a 2.0124864,2.0064064 0 0 1 2.03166,0 L 641.22895,228.71074 q 0.43124,0.25797 0.47916,0.75479 z"
     id="path1"
     style="fill:url(#linearGradient2);stroke-width:0.956878" />
</svg>
