<svg width="526" height="526" viewBox="0 0 526 526" fill="none" xmlns="http://www.w3.org/2000/svg">
<path d="M404.042 146.705C387.706 116.093 361.86 91.622 330.402 76.9818C298.943 62.3416 263.578 58.3259 229.638 65.5402C195.698 72.7545 165.024 90.8077 142.24 116.978C119.456 143.148 105.799 176.016 103.326 210.626C75.1016 213.661 49.114 227.399 30.7108 249.013C12.3075 270.626 2.88863 298.472 4.3922 326.819C5.89578 355.167 18.2074 381.86 38.7938 401.406C59.3802 420.951 86.6753 431.863 115.063 431.896H166.43H355.461H378.063C413.95 431.918 448.549 418.517 475.058 394.327C501.568 370.137 518.073 336.908 521.329 301.168C524.584 265.428 514.356 229.763 492.653 201.181C470.95 172.6 439.343 153.168 404.042 146.705ZM378.063 407.239H355.461V431.896H166.43V407.239H115.063C93.1934 407.29 72.1247 399.015 56.1348 384.096C40.1448 369.177 30.4322 348.731 28.9691 326.911C27.506 305.091 34.4022 283.532 48.2572 266.611C62.1123 249.691 81.8877 238.678 103.568 235.808C105.307 257.561 111.48 278.727 121.708 298.004C122.449 299.474 123.476 300.78 124.73 301.846C125.983 302.912 127.437 303.717 129.006 304.212C130.576 304.708 132.228 304.884 133.867 304.73C135.505 304.577 137.096 304.097 138.546 303.319C139.996 302.541 141.276 301.48 142.31 300.2C143.343 298.92 144.11 297.445 144.565 295.864C145.02 294.282 145.154 292.626 144.958 290.992C144.763 289.358 144.242 287.779 143.427 286.35C127.132 255.888 123.078 220.355 132.092 187.005C141.105 153.655 162.507 125.002 191.928 106.896C221.349 88.7893 256.572 82.594 290.406 89.5746C324.24 96.5552 354.134 116.185 373.986 144.458C354.285 145.001 334.906 149.586 317.05 157.927C299.195 166.268 283.242 178.188 270.183 192.949C269.071 194.156 268.211 195.573 267.654 197.116C267.097 198.66 266.853 200.3 266.938 201.939C267.023 203.578 267.434 205.183 268.148 206.661C268.861 208.14 269.863 209.46 271.093 210.546C272.324 211.632 273.759 212.461 275.315 212.985C276.87 213.509 278.514 213.717 280.151 213.597C281.788 213.477 283.384 213.032 284.847 212.286C286.309 211.541 287.608 210.512 288.667 209.258C301.837 194.32 318.54 182.92 337.251 176.101C355.962 169.281 376.083 167.259 395.776 170.22C415.469 173.181 434.107 181.029 449.985 193.049C465.864 205.068 478.477 220.875 486.672 239.025C494.868 257.175 498.384 277.09 496.9 296.949C495.416 316.808 488.978 335.979 478.176 352.709C467.374 369.44 452.551 383.196 435.063 392.722C417.574 402.248 397.977 407.239 378.063 407.239Z" fill="#161616"/>
<path d="M178.523 323H170.459V255.992H197.147C203.035 255.992 207.611 257.624 210.875 260.888C214.203 264.152 215.867 268.856 215.867 275C215.867 279.928 214.715 283.992 212.411 287.192C210.171 290.328 206.843 292.408 202.427 293.432L217.787 323H208.667L194.171 294.2H178.523V323ZM197.147 287.288C200.347 287.288 202.811 286.456 204.539 284.792C206.331 283.128 207.227 280.76 207.227 277.688V272.696C207.227 269.624 206.331 267.256 204.539 265.592C202.811 263.928 200.347 263.096 197.147 263.096H178.523V287.288H197.147ZM240.428 323L224.108 255.992H232.652L239.852 288.248L245.42 313.304H245.612L251.852 288.248L260.3 255.992H269.516L277.676 288.248L283.916 313.208H284.204L289.964 288.248L297.548 255.992H305.804L288.62 323H279.692L270.956 289.592L264.812 265.016H264.62L258.284 289.592L249.356 323H240.428ZM335.432 324.152C329.992 324.152 325.352 323.128 321.512 321.08C317.672 318.968 314.408 316.088 311.72 312.44L317.672 307.448C320.04 310.584 322.664 312.984 325.544 314.648C328.424 316.248 331.816 317.048 335.72 317.048C340.52 317.048 344.168 315.896 346.664 313.592C349.224 311.288 350.504 308.216 350.504 304.376C350.504 301.176 349.544 298.712 347.624 296.984C345.704 295.256 342.536 293.88 338.12 292.856L332.648 291.608C326.504 290.2 321.8 288.088 318.536 285.272C315.336 282.392 313.736 278.36 313.736 273.176C313.736 270.232 314.28 267.608 315.368 265.304C316.456 263 317.96 261.08 319.88 259.544C321.864 258.008 324.2 256.856 326.888 256.088C329.64 255.256 332.648 254.84 335.911 254.84C340.968 254.84 345.288 255.768 348.872 257.624C352.52 259.48 355.592 262.2 358.088 265.784L352.04 270.2C350.184 267.64 347.944 265.624 345.32 264.152C342.696 262.68 339.432 261.944 335.528 261.944C331.24 261.944 327.848 262.872 325.352 264.728C322.92 266.52 321.704 269.24 321.704 272.888C321.704 276.088 322.728 278.52 324.776 280.184C326.888 281.784 330.056 283.064 334.28 284.024L339.752 285.272C346.344 286.744 351.112 288.984 354.056 291.992C357 295 358.472 299 358.472 303.992C358.472 307.064 357.928 309.848 356.84 312.344C355.816 314.84 354.312 316.952 352.328 318.68C350.344 320.408 347.912 321.752 345.032 322.712C342.216 323.672 339.016 324.152 335.432 324.152ZM201.753 434.768C196.206 434.768 191.918 432.848 188.889 429.008C185.859 425.125 184.345 419.387 184.345 411.792C184.345 404.24 185.859 398.48 188.889 394.512C191.918 390.544 196.206 388.56 201.753 388.56C205.337 388.56 208.345 389.413 210.777 391.12C213.251 392.827 215.171 395.152 216.537 398.096L213.401 399.952C212.419 397.52 210.926 395.6 208.921 394.192C206.958 392.741 204.569 392.016 201.753 392.016C197.571 392.016 194.307 393.509 191.961 396.496C189.614 399.483 188.441 403.749 188.441 409.296V414.352C188.441 419.856 189.614 424.059 191.961 426.96C194.307 429.861 197.571 431.312 201.753 431.312C204.739 431.312 207.235 430.565 209.241 429.072C211.246 427.536 212.739 425.488 213.721 422.928L216.857 424.784C215.534 427.856 213.593 430.288 211.033 432.08C208.473 433.872 205.379 434.768 201.753 434.768ZM229.797 434C228.474 434 227.471 433.637 226.789 432.912C226.106 432.187 225.765 431.227 225.765 430.032V386.64H229.413V430.8H234.469V434H229.797ZM254.288 434.768C252.112 434.768 250.149 434.384 248.4 433.616C246.65 432.848 245.157 431.739 243.92 430.288C242.682 428.795 241.722 426.981 241.04 424.848C240.357 422.715 240.016 420.304 240.016 417.616C240.016 414.928 240.357 412.539 241.04 410.448C241.722 408.315 242.682 406.523 243.92 405.072C245.157 403.579 246.65 402.448 248.4 401.68C250.149 400.869 252.112 400.464 254.288 400.464C256.464 400.464 258.426 400.869 260.176 401.68C261.925 402.448 263.418 403.579 264.656 405.072C265.893 406.523 266.853 408.315 267.536 410.448C268.218 412.539 268.56 414.928 268.56 417.616C268.56 420.304 268.218 422.715 267.536 424.848C266.853 426.981 265.893 428.795 264.656 430.288C263.418 431.739 261.925 432.848 260.176 433.616C258.426 434.384 256.464 434.768 254.288 434.768ZM254.288 431.504C257.488 431.504 260.005 430.501 261.84 428.496C263.717 426.491 264.656 423.547 264.656 419.664V415.568C264.656 411.728 263.717 408.805 261.84 406.8C260.005 404.752 257.488 403.728 254.288 403.728C251.088 403.728 248.549 404.731 246.672 406.736C244.837 408.741 243.92 411.685 243.92 415.568V419.664C243.92 423.504 244.837 426.448 246.672 428.496C248.549 430.501 251.088 431.504 254.288 431.504ZM298.307 428.816H298.051C297.752 429.584 297.347 430.331 296.835 431.056C296.323 431.781 295.683 432.421 294.915 432.976C294.147 433.488 293.23 433.915 292.163 434.256C291.139 434.597 289.923 434.768 288.515 434.768C285.016 434.768 282.286 433.701 280.323 431.568C278.36 429.392 277.379 426.299 277.379 422.288V401.232H281.027V421.584C281.027 424.955 281.752 427.451 283.203 429.072C284.654 430.693 286.744 431.504 289.475 431.504C290.627 431.504 291.715 431.355 292.739 431.056C293.806 430.757 294.744 430.309 295.555 429.712C296.408 429.115 297.07 428.368 297.539 427.472C298.051 426.533 298.307 425.445 298.307 424.208V401.232H301.955V434H298.307V428.816ZM335.074 428.752H334.882C334.028 430.587 332.77 432.059 331.106 433.168C329.484 434.235 327.415 434.768 324.898 434.768C320.674 434.768 317.367 433.275 314.978 430.288C312.588 427.301 311.394 423.077 311.394 417.616C311.394 412.155 312.588 407.931 314.978 404.944C317.367 401.957 320.674 400.464 324.898 400.464C327.415 400.464 329.506 401.019 331.17 402.128C332.834 403.195 334.071 404.645 334.882 406.48H335.074V386.64H338.722V434H335.074V428.752ZM325.73 431.504C327.01 431.504 328.204 431.333 329.314 430.992C330.466 430.651 331.468 430.16 332.322 429.52C333.175 428.837 333.836 428.048 334.306 427.152C334.818 426.213 335.074 425.168 335.074 424.016V411.024C335.074 409.957 334.818 408.976 334.306 408.08C333.836 407.184 333.175 406.416 332.322 405.776C331.468 405.136 330.466 404.645 329.314 404.304C328.204 403.92 327.01 403.728 325.73 403.728C322.444 403.728 319.884 404.773 318.05 406.864C316.215 408.955 315.298 411.771 315.298 415.312V419.92C315.298 423.461 316.215 426.277 318.05 428.368C319.884 430.459 322.444 431.504 325.73 431.504Z" fill="black"/>
</svg>
